<svg width="20" height="20" viewBox="0 0 20 20" fill="none" xmlns="http://www.w3.org/2000/svg">
<path fill-rule="evenodd" clip-rule="evenodd" d="M19.2128 4.07332C18.9699 3.44772 18.6461 2.9178 18.1162 2.38789C17.5862 1.85797 17.0563 1.53413 16.4307 1.29125C15.8272 1.05573 15.128 0.893811 14.1197 0.849651L14.1026 0.848907C13.1003 0.805326 12.7656 0.790771 10.1895 0.790771C7.59875 0.790771 7.27491 0.798131 6.25923 0.849651C5.24355 0.893811 4.55172 1.05573 3.9482 1.29125C3.3226 1.53413 2.79268 1.85797 2.26276 2.38789C1.73285 2.9178 1.40901 3.44772 1.16613 4.07332C0.930609 4.67684 0.768689 5.37604 0.724529 6.38435L0.723785 6.40147C0.680204 7.40375 0.665649 7.73848 0.665649 10.3146C0.665649 12.9053 0.673009 13.2291 0.724529 14.2448C0.768689 15.2605 0.930609 15.9523 1.16613 16.5558C1.40901 17.1814 1.73285 17.7114 2.26276 18.2413C2.79268 18.7712 3.3226 19.095 3.9482 19.3379C4.55172 19.5734 5.25091 19.7354 6.25923 19.7795L6.27633 19.7803H6.27637C7.27864 19.8238 7.61337 19.8384 10.1895 19.8384C12.7802 19.8384 13.104 19.831 14.1197 19.7795C15.1354 19.7354 15.8272 19.5734 16.4307 19.3379C17.0563 19.095 17.5862 18.7712 18.1162 18.2413C18.6461 17.7114 18.9699 17.1814 19.2128 16.5558C19.4483 15.9523 19.6102 15.2531 19.6544 14.2448L19.6551 14.2277V14.2277C19.6987 13.2254 19.7133 12.8907 19.7133 10.3146C19.7133 7.72387 19.7059 7.40003 19.6544 6.38435C19.6102 5.36868 19.4483 4.67684 19.2128 4.07332ZM17.2791 13.8327C17.2387 14.6801 17.0975 15.1442 16.9764 15.4469C16.8217 15.8504 16.6267 16.1464 16.324 16.449C16.0214 16.7517 15.7321 16.94 15.3219 17.1014C15.0125 17.2225 14.5551 17.3638 13.7077 17.4041L13.6638 17.406H13.6638C12.7771 17.4449 12.4798 17.4579 10.19 17.4579C7.86289 17.4579 7.58713 17.4512 6.67242 17.4041C5.82496 17.3638 5.36087 17.2225 5.05821 17.1014C4.65466 16.9468 4.35872 16.7517 4.05606 16.449C3.75339 16.1464 3.56507 15.8572 3.40365 15.4469C3.28259 15.1375 3.14134 14.6801 3.10099 13.8327L3.09939 13.7963C3.06028 12.9035 3.04718 12.6046 3.04718 10.3151C3.04718 7.99464 3.05391 7.71215 3.10099 6.79744C3.14134 5.94998 3.28259 5.48589 3.40365 5.18323C3.55835 4.77968 3.75339 4.48374 4.05606 4.18108C4.35872 3.87841 4.64793 3.69009 5.05821 3.52867C5.3676 3.40761 5.82496 3.26636 6.67242 3.22601L6.70881 3.22441C7.60155 3.1853 7.90045 3.1722 10.19 3.1722C12.5105 3.1722 12.7929 3.17893 13.7077 3.22601C14.5551 3.26636 15.0192 3.40761 15.3219 3.52867C15.7254 3.68337 16.0214 3.87841 16.324 4.18108C16.6267 4.48374 16.815 4.77295 16.9764 5.18323C17.0975 5.49262 17.2387 5.94998 17.2791 6.79744L17.2807 6.83385C17.3198 7.72657 17.3329 8.02548 17.3329 10.3151C17.3329 12.6133 17.3197 12.9124 17.2802 13.8067L17.2791 13.8327ZM16.1404 5.55343C16.1404 6.21091 15.6074 6.74391 14.9499 6.74391C14.2924 6.74391 13.7594 6.21091 13.7594 5.55343C13.7594 4.89595 14.2924 4.36296 14.9499 4.36296C15.6074 4.36296 16.1404 4.89595 16.1404 5.55343ZM10.188 5.55306C7.55999 5.55306 5.42609 7.68697 5.42609 10.315C5.42609 12.943 7.55999 15.0769 10.188 15.0769C12.816 15.0769 14.9499 12.943 14.9499 10.315C14.9499 7.68697 12.816 5.55306 10.188 5.55306ZM7.8115 10.3149C7.8115 11.6321 8.88073 12.6958 10.1925 12.6958C11.5042 12.6958 12.5734 11.6266 12.5734 10.3149C12.5734 8.99763 11.5097 7.93392 10.1925 7.93392C8.87522 7.93392 7.8115 9.00314 7.8115 10.3149Z" fill="black"/>
</svg>
