<svg width="20" height="15" viewBox="0 0 20 15" fill="none" xmlns="http://www.w3.org/2000/svg">
<path fill-rule="evenodd" clip-rule="evenodd" d="M17.8137 1.34231C18.6742 1.5723 19.352 2.24991 19.582 3.11043C20 4.67013 20 7.92436 20 7.92436C20 7.92436 20 11.1786 19.582 12.7381C19.352 13.5986 18.6742 14.2764 17.8137 14.5064C16.254 14.9244 9.99992 14.9244 9.99992 14.9244C9.99992 14.9244 3.74581 14.9244 2.18611 14.5064C1.3256 14.2764 0.647817 13.5986 0.417829 12.7381C0 11.1786 0 7.92436 0 7.92436C0 7.92436 0 4.67013 0.417829 3.11043C0.647817 2.24991 1.3256 1.5723 2.18611 1.34231C3.74581 0.924316 9.99992 0.924316 9.99992 0.924316C9.99992 0.924316 16.254 0.924316 17.8137 1.34231ZM13.5867 8.11837L8.39062 11.1184V5.11833L13.5867 8.11837Z" fill="black"/>
</svg>
